<svg xmlns="http://www.w3.org/2000/svg" xmlns:xlink="http://www.w3.org/1999/xlink" xmlns:lucid="lucid" width="463.67" height="458.33"><g transform="translate(-4.8333333333333 314.4999999999999)" lucid:page-tab-id="0_0"><path d="M0-500h500V500H0z" fill="#fff"/><path d="M170.67-258.67c0 30.56-37 55.34-82.67 55.34-45.66 0-82.67-24.78-82.67-55.34 0-30.56 37-55.33 82.67-55.33 45.66 0 82.67 24.77 82.67 55.33z" stroke="#3a414a" fill-opacity="0"/><use xlink:href="#a" transform="matrix(1,0,0,1,10.3333333333333,-308.9999999999999) translate(37.83615451388889 59.40277777777778)"/><path d="M170.67-85.33c0 30.56-37 55.33-82.67 55.33C42.34-30 5.33-54.77 5.33-85.33s37-55.34 82.67-55.34c45.66 0 82.67 24.78 82.67 55.34z" stroke="#3a414a" fill-opacity="0"/><use xlink:href="#b" transform="matrix(1,0,0,1,10.3333333333333,-135.66666666666666) translate(38.37826388888888 43.62152777777778)"/><use xlink:href="#c" transform="matrix(1,0,0,1,10.3333333333333,-135.66666666666666) translate(25.46593750000001 70.50954861111111)"/><path d="M170.67 88c0 30.56-37 55.33-82.67 55.33-45.66 0-82.67-24.77-82.67-55.33s37-55.33 82.67-55.33c45.66 0 82.67 24.77 82.67 55.33z" stroke="#3a414a" fill-opacity="0"/><use xlink:href="#d" transform="matrix(1,0,0,1,10.333333333333314,37.66666666666657) translate(38.373263888888886 59.40277777777778)"/><path d="M468 88c0 30.56-37 55.33-82.67 55.33-45.65 0-82.66-24.77-82.66-55.33s37-55.33 82.66-55.33S468 57.44 468 88z" stroke="#3a414a" fill-opacity="0"/><use xlink:href="#e" transform="matrix(1,0,0,1,307.66666666666663,37.66666666666657) translate(26.122829861111107 59.40277777777778)"/><path d="M88.47-141.67h-.94v-16.17h.94zm0-37.68h-.94v-14.04h.94z" stroke="#3a414a" stroke-width=".05" fill="#3a414a"/><path d="M88.47-141.15l-.47-.02-.47.02v-.53h.94z" fill="#3a414a"/><path stroke="#3a414a" stroke-width=".05" fill="#3a414a"/><path d="M98.4-184.75l-.8.48-9.13-15.8v6.74h-.94v-6.73l-9.12 15.8-.8-.5L88-202.77z" stroke="#3a414a" stroke-width=".05" fill="#3a414a"/><use xlink:href="#f" transform="matrix(1,0,0,1,28.76388888888887,-179.35290302296707) translate(0 17.22222222222222)"/><use xlink:href="#g" transform="matrix(1,0,0,1,28.76388888888887,-179.35290302296707) translate(18.68923611111111 17.22222222222222)"/><use xlink:href="#h" transform="matrix(1,0,0,1,28.76388888888887,-179.35290302296707) translate(57.517361111111114 17.22222222222222)"/><use xlink:href="#i" transform="matrix(1,0,0,1,28.76388888888887,-179.35290302296707) translate(79.75694444444446 17.22222222222222)"/><path d="M88.47 31.67h-.94V21.3l.94.02zm0-31.87h-.94v-19.86h.94z" stroke="#3a414a" stroke-width=".05" fill="#3a414a"/><path d="M88.47 32.18h-.94v-.53h.94z" fill="#3a414a"/><path stroke="#3a414a" stroke-width=".05" fill="#3a414a"/><path d="M98.4-11.42l-.8.48-9.13-15.8V-20h-.94v-6.73l-9.12 15.8-.8-.5L88-29.44z" stroke="#3a414a" stroke-width=".05" fill="#3a414a"/><use xlink:href="#j" transform="matrix(1,0,0,1,28.763888888888886,-0.1949767016419166) translate(0 17.22222222222222)"/><use xlink:href="#k" transform="matrix(1,0,0,1,28.763888888888886,-0.1949767016419166) translate(18.68923611111111 17.22222222222222)"/><use xlink:href="#l" transform="matrix(1,0,0,1,28.763888888888886,-0.1949767016419166) translate(57.517361111111114 17.22222222222222)"/><use xlink:href="#m" transform="matrix(1,0,0,1,28.763888888888886,-0.1949767016419166) translate(79.75694444444446 17.22222222222222)"/><path d="M188.3 88.47h-16.63v-.94h16.64zm104.42 0h-23.77v-.94h23.77z" stroke="#3a414a" stroke-width=".05" fill="#3a414a"/><path d="M171.68 88.47h-.53l.02-.47-.02-.47h.53z" fill="#3a414a"/><path stroke="#3a414a" stroke-width=".05" fill="#3a414a"/><path d="M302.12 88l-18.04 10.4-.47-.8 15.8-9.13h-6.73v-.94h6.72l-15.8-9.12.48-.8z" stroke="#3a414a" stroke-width=".05" fill="#3a414a"/><g><use xlink:href="#n" transform="matrix(1,0,0,1,188.30644626343582,51.43229166666656) translate(25.38694444444445 17.22222222222222)"/><use xlink:href="#o" transform="matrix(1,0,0,1,188.30644626343582,51.43229166666656) translate(0.005000000000002558 43.034722222222214)"/><use xlink:href="#p" transform="matrix(1,0,0,1,188.30644626343582,51.43229166666656) translate(11.393888888888892 68.84722222222221)"/></g><defs><path fill="#3a414a" d="M645 0H180v-1490h484c435 0 692 280 692 742 0 466-257 748-711 748zM370-168h263c363 0 539-218 539-580 0-358-176-574-521-574H370v1154" id="q"/><path fill="#3a414a" d="M471 26C259 26 90-98 90-318c0-256 228-303 435-329 202-27 287-16 287-108 0-139-79-219-234-219-161 0-248 86-283 164l-173-57c86-203 278-265 451-265 150 0 419 46 419 395V0H815v-152h-12C765-73 660 26 471 26zm31-159c199 0 310-134 310-271v-155c-30 35-226 55-295 64-131 17-246 59-246 186 0 116 97 176 231 176" id="r"/><path fill="#3a414a" d="M598-1118v154H368v674c0 100 37 144 132 144 23 0 62-6 92-12L629-6c-37 13-88 20-134 20-193 0-307-107-307-290v-688H20v-154h168v-266h180v266h230" id="s"/><path fill="#3a414a" d="M538 24C308 24 148-78 108-271l171-41c32 123 123 178 257 178 156 0 256-77 256-169 0-77-54-128-164-154l-186-44c-203-48-300-148-300-305 0-192 176-326 414-326 230 0 351 112 402 269l-163 42c-31-80-94-158-238-158-133 0-233 69-233 162 0 83 57 129 188 160l169 40c203 48 298 149 298 302 0 196-179 339-441 339" id="t"/><path fill="#3a414a" d="M628 24c-324 0-524-230-524-574 0-343 198-582 503-582 237 0 487 146 487 559v75H286c9 234 145 362 343 362 132 0 231-58 273-172l174 48C1024-91 857 24 628 24zM287-650h624c-17-190-120-322-304-322-192 0-309 151-320 322" id="u"/><g id="a"><use transform="matrix(0.010850694444444444,0,0,0.010850694444444444,0,0)" xlink:href="#q"/><use transform="matrix(0.010850694444444444,0,0,0.010850694444444444,16.03732638888889,0)" xlink:href="#r"/><use transform="matrix(0.010850694444444444,0,0,0.010850694444444444,28.515625,0)" xlink:href="#s"/><use transform="matrix(0.010850694444444444,0,0,0.010850694444444444,35.89409722222222,0)" xlink:href="#r"/><use transform="matrix(0.010850694444444444,0,0,0.010850694444444444,48.37239583333333,0)" xlink:href="#t"/><use transform="matrix(0.010850694444444444,0,0,0.010850694444444444,60.10199652777778,0)" xlink:href="#u"/><use transform="matrix(0.010850694444444444,0,0,0.010850694444444444,73.05772569444444,0)" xlink:href="#s"/></g><path fill="#3a414a" d="M180 0v-1490h901v168H370v510h643v168H370V0H180" id="v"/><path fill="#3a414a" d="M537 14c-226 0-379-139-379-422v-710h180v695c0 172 97 275 253 275 160 0 281-109 281-300v-670h181V0H879v-209C806-46 684 14 537 14" id="w"/><path fill="#3a414a" d="M158 0v-1118h174v172h12c41-113 157-188 290-188 26 0 70 2 91 3v181c-11-2-60-10-108-10-161 0-279 109-279 260V0H158" id="x"/><g id="b"><use transform="matrix(0.010850694444444444,0,0,0.010850694444444444,0,0)" xlink:href="#v"/><use transform="matrix(0.010850694444444444,0,0,0.010850694444444444,12.239583333333332,0)" xlink:href="#u"/><use transform="matrix(0.010850694444444444,0,0,0.010850694444444444,25.41232638888889,0)" xlink:href="#r"/><use transform="matrix(0.010850694444444444,0,0,0.010850694444444444,37.890625,0)" xlink:href="#s"/><use transform="matrix(0.010850694444444444,0,0,0.010850694444444444,45.16059027777778,0)" xlink:href="#w"/><use transform="matrix(0.010850694444444444,0,0,0.010850694444444444,58.30078125,0)" xlink:href="#x"/><use transform="matrix(0.010850694444444444,0,0,0.010850694444444444,66.29774305555556,0)" xlink:href="#u"/></g><path fill="#3a414a" d="M783 20c-382 0-661-292-661-764 0-473 279-766 661-766 302 0 548 182 601 489h-190c-42-204-217-313-411-313-268 0-476 208-476 590 0 381 209 588 476 588 195 0 369-110 411-313h190c-52 303-296 489-601 489" id="y"/><path fill="#3a414a" d="M613 24c-304 0-509-231-509-576 0-350 205-580 509-580 305 0 511 230 511 580 0 345-206 576-511 576zm0-161c226 0 329-195 329-415 0-222-103-419-329-419-223 0-326 196-326 419 0 220 103 415 326 415" id="z"/><path fill="#3a414a" d="M338-1490V0H158v-1490h180" id="A"/><path fill="#3a414a" d="M613 24c-304 0-509-231-509-576 0-350 205-580 509-580 216 0 392 114 453 309l-173 49c-33-115-133-197-280-197-223 0-326 196-326 419 0 220 103 415 326 415 150 0 252-85 285-206l172 49C1010-95 832 24 613 24" id="B"/><path fill="#3a414a" d="M158 0v-1118h180V0H158zm91-1301c-68 0-125-53-125-119s57-119 125-119c69 0 126 53 126 119s-57 119-126 119" id="C"/><path fill="#3a414a" d="M338-670V0H158v-1118h173l1 207c72-158 192-221 342-221 226 0 378 139 378 422V0H872v-695c0-172-96-275-252-275-161 0-282 109-282 300" id="D"/><g id="c"><use transform="matrix(0.010850694444444444,0,0,0.010850694444444444,0,0)" xlink:href="#y"/><use transform="matrix(0.010850694444444444,0,0,0.010850694444444444,16.23263888888889,0)" xlink:href="#z"/><use transform="matrix(0.010850694444444444,0,0,0.010850694444444444,29.557291666666664,0)" xlink:href="#A"/><use transform="matrix(0.010850694444444444,0,0,0.010850694444444444,34.93923611111111,0)" xlink:href="#A"/><use transform="matrix(0.010850694444444444,0,0,0.010850694444444444,40.32118055555555,0)" xlink:href="#u"/><use transform="matrix(0.010850694444444444,0,0,0.010850694444444444,53.27690972222221,0)" xlink:href="#B"/><use transform="matrix(0.010850694444444444,0,0,0.010850694444444444,65.97222222222221,0)" xlink:href="#s"/><use transform="matrix(0.010850694444444444,0,0,0.010850694444444444,73.24218749999999,0)" xlink:href="#C"/><use transform="matrix(0.010850694444444444,0,0,0.010850694444444444,78.62413194444443,0)" xlink:href="#z"/><use transform="matrix(0.010850694444444444,0,0,0.010850694444444444,91.9487847222222,0)" xlink:href="#D"/></g><g id="d"><use transform="matrix(0.010850694444444444,0,0,0.010850694444444444,0,0)" xlink:href="#v"/><use transform="matrix(0.010850694444444444,0,0,0.010850694444444444,12.239583333333332,0)" xlink:href="#u"/><use transform="matrix(0.010850694444444444,0,0,0.010850694444444444,25.41232638888889,0)" xlink:href="#r"/><use transform="matrix(0.010850694444444444,0,0,0.010850694444444444,37.890625,0)" xlink:href="#s"/><use transform="matrix(0.010850694444444444,0,0,0.010850694444444444,45.16059027777778,0)" xlink:href="#w"/><use transform="matrix(0.010850694444444444,0,0,0.010850694444444444,58.30078125,0)" xlink:href="#x"/><use transform="matrix(0.010850694444444444,0,0,0.010850694444444444,66.29774305555556,0)" xlink:href="#u"/></g><path fill="#3a414a" d="M789 20c-398 0-667-293-667-764 0-473 273-766 655-766 315 0 558 198 612 487h-196c-61-191-204-311-415-311-262 0-471 207-471 590 0 380 208 588 482 588 249 0 420-165 425-427H828v-166h572v163c0 370-256 606-611 606" id="E"/><path fill="#3a414a" d="M158 0v-1118h175l1 205c55-151 181-225 313-225 147 0 245 90 285 228 53-141 190-228 352-228 194 0 352 125 352 384V0h-181v-749c0-161-105-225-225-225-151 0-243 103-243 244V0H807v-767c0-124-93-207-219-207-131 0-250 92-250 270V0H158" id="F"/><path fill="#3a414a" d="M140 405l46-156c120 36 205 19 263-150l32-93L54-1118h197c107 313 237 620 324 950 87-331 219-637 326-950h196L606 167c-68 178-176 259-334 259-64 0-113-12-132-21" id="G"/><g id="e"><use transform="matrix(0.010850694444444444,0,0,0.010850694444444444,0,0)" xlink:href="#E"/><use transform="matrix(0.010850694444444444,0,0,0.010850694444444444,16.57986111111111,0)" xlink:href="#u"/><use transform="matrix(0.010850694444444444,0,0,0.010850694444444444,29.535590277777775,0)" xlink:href="#z"/><use transform="matrix(0.010850694444444444,0,0,0.010850694444444444,42.86024305555556,0)" xlink:href="#F"/><use transform="matrix(0.010850694444444444,0,0,0.010850694444444444,62.326388888888886,0)" xlink:href="#u"/><use transform="matrix(0.010850694444444444,0,0,0.010850694444444444,75.28211805555556,0)" xlink:href="#s"/><use transform="matrix(0.010850694444444444,0,0,0.010850694444444444,82.55208333333333,0)" xlink:href="#x"/><use transform="matrix(0.010850694444444444,0,0,0.010850694444444444,91.26519097222221,0)" xlink:href="#G"/></g><path fill="#333" d="M158 0v-1118h180V0H158zm91-1301c-68 0-125-53-125-119s57-119 125-119c69 0 126 53 126 119s-57 119-126 119" id="H"/><path fill="#333" d="M538 24C308 24 148-78 108-271l171-41c32 123 123 178 257 178 156 0 256-77 256-169 0-77-54-128-164-154l-186-44c-203-48-300-148-300-305 0-192 176-326 414-326 230 0 351 112 402 269l-163 42c-31-80-94-158-238-158-133 0-233 69-233 162 0 83 57 129 188 160l169 40c203 48 298 149 298 302 0 196-179 339-441 339" id="I"/><g id="f"><use transform="matrix(0.008680555555555556,0,0,0.008680555555555556,0,0)" xlink:href="#H"/><use transform="matrix(0.008680555555555556,0,0,0.008680555555555556,4.305555555555555,0)" xlink:href="#I"/></g><path fill="#333" d="M158 418v-1536h174v179h20c37-59 106-193 324-193 279 0 474 222 474 576 0 356-194 580-473 580-213 0-288-135-325-197h-14v591H158zm492-555c209 0 317-186 317-421 0-232-105-413-317-413-206 0-314 166-314 413 0 249 111 421 314 421" id="J"/><path fill="#333" d="M471 26C259 26 90-98 90-318c0-256 228-303 435-329 202-27 287-16 287-108 0-139-79-219-234-219-161 0-248 86-283 164l-173-57c86-203 278-265 451-265 150 0 419 46 419 395V0H815v-152h-12C765-73 660 26 471 26zm31-159c199 0 310-134 310-271v-155c-30 35-226 55-295 64-131 17-246 59-246 186 0 116 97 176 231 176" id="K"/><path fill="#333" d="M158 0v-1118h174v172h12c41-113 157-188 290-188 26 0 70 2 91 3v181c-11-2-60-10-108-10-161 0-279 109-279 260V0H158" id="L"/><path fill="#333" d="M598-1118v154H368v674c0 100 37 144 132 144 23 0 62-6 92-12L629-6c-37 13-88 20-134 20-193 0-307-107-307-290v-688H20v-154h168v-266h180v266h230" id="M"/><g id="g"><use transform="matrix(0.008680555555555556,0,0,0.008680555555555556,0,0)" xlink:href="#J"/><use transform="matrix(0.008680555555555556,0,0,0.008680555555555556,11.059027777777779,0)" xlink:href="#K"/><use transform="matrix(0.008680555555555556,0,0,0.008680555555555556,21.041666666666668,0)" xlink:href="#L"/><use transform="matrix(0.008680555555555556,0,0,0.008680555555555556,28.01215277777778,0)" xlink:href="#M"/></g><path fill="#333" d="M613 24c-304 0-509-231-509-576 0-350 205-580 509-580 305 0 511 230 511 580 0 345-206 576-511 576zm0-161c226 0 329-195 329-415 0-222-103-419-329-419-223 0-326 196-326 419 0 220 103 415 326 415" id="N"/><path fill="#333" d="M678-1118v154H420V0H240v-964H20v-154h220v-149c0-194 155-293 318-293 85 0 141 18 168 30l-50 154c-19-6-47-17-97-17-111 0-159 58-159 166v109h258" id="O"/><g id="h"><use transform="matrix(0.008680555555555556,0,0,0.008680555555555556,0,0)" xlink:href="#N"/><use transform="matrix(0.008680555555555556,0,0,0.008680555555555556,10.659722222222223,0)" xlink:href="#O"/></g><path fill="#333" d="M226 279v-1860h398v153H398V126h226v153H226" id="P"/><path fill="#333" d="M653-1490V0H466v-1314h-10L96-1047v-204l324-239h233" id="Q"/><path fill="#333" d="M295 13c-75 0-135-60-135-135s60-135 135-135 135 60 135 135S370 13 295 13zm0-809c-75 0-135-60-135-135s60-135 135-135 135 60 135 135-60 135-135 135" id="R"/><path fill="#333" d="M180 0v-1490h224l606 953c40 63 108 177 176 312-27-437-7-821-13-1265h190V0h-226C860-448 622-778 356-1262c27 476 11 792 15 1262H180" id="S"/><path fill="#333" d="M123 279V126h226v-1554H123v-153h398V279H123" id="T"/><g id="i"><use transform="matrix(0.008680555555555556,0,0,0.008680555555555556,0,0)" xlink:href="#P"/><use transform="matrix(0.008680555555555556,0,0,0.008680555555555556,6.484375,0)" xlink:href="#Q"/><use transform="matrix(0.008680555555555556,0,0,0.008680555555555556,13.715277777777779,0)" xlink:href="#R"/><use transform="matrix(0.008680555555555556,0,0,0.008680555555555556,18.836805555555557,0)" xlink:href="#S"/><use transform="matrix(0.008680555555555556,0,0,0.008680555555555556,32.23090277777778,0)" xlink:href="#T"/></g><path d="M158 0v-1118h180V0H158zm91-1301c-68 0-125-53-125-119s57-119 125-119c69 0 126 53 126 119s-57 119-126 119" id="U"/><path d="M538 24C308 24 148-78 108-271l171-41c32 123 123 178 257 178 156 0 256-77 256-169 0-77-54-128-164-154l-186-44c-203-48-300-148-300-305 0-192 176-326 414-326 230 0 351 112 402 269l-163 42c-31-80-94-158-238-158-133 0-233 69-233 162 0 83 57 129 188 160l169 40c203 48 298 149 298 302 0 196-179 339-441 339" id="V"/><g id="j"><use transform="matrix(0.008680555555555556,0,0,0.008680555555555556,0,0)" xlink:href="#U"/><use transform="matrix(0.008680555555555556,0,0,0.008680555555555556,4.305555555555555,0)" xlink:href="#V"/></g><path d="M158 418v-1536h174v179h20c37-59 106-193 324-193 279 0 474 222 474 576 0 356-194 580-473 580-213 0-288-135-325-197h-14v591H158zm492-555c209 0 317-186 317-421 0-232-105-413-317-413-206 0-314 166-314 413 0 249 111 421 314 421" id="W"/><path d="M471 26C259 26 90-98 90-318c0-256 228-303 435-329 202-27 287-16 287-108 0-139-79-219-234-219-161 0-248 86-283 164l-173-57c86-203 278-265 451-265 150 0 419 46 419 395V0H815v-152h-12C765-73 660 26 471 26zm31-159c199 0 310-134 310-271v-155c-30 35-226 55-295 64-131 17-246 59-246 186 0 116 97 176 231 176" id="X"/><path d="M158 0v-1118h174v172h12c41-113 157-188 290-188 26 0 70 2 91 3v181c-11-2-60-10-108-10-161 0-279 109-279 260V0H158" id="Y"/><path d="M598-1118v154H368v674c0 100 37 144 132 144 23 0 62-6 92-12L629-6c-37 13-88 20-134 20-193 0-307-107-307-290v-688H20v-154h168v-266h180v266h230" id="Z"/><g id="k"><use transform="matrix(0.008680555555555556,0,0,0.008680555555555556,0,0)" xlink:href="#W"/><use transform="matrix(0.008680555555555556,0,0,0.008680555555555556,11.059027777777779,0)" xlink:href="#X"/><use transform="matrix(0.008680555555555556,0,0,0.008680555555555556,21.041666666666668,0)" xlink:href="#Y"/><use transform="matrix(0.008680555555555556,0,0,0.008680555555555556,28.01215277777778,0)" xlink:href="#Z"/></g><path d="M613 24c-304 0-509-231-509-576 0-350 205-580 509-580 305 0 511 230 511 580 0 345-206 576-511 576zm0-161c226 0 329-195 329-415 0-222-103-419-329-419-223 0-326 196-326 419 0 220 103 415 326 415" id="aa"/><path d="M678-1118v154H420V0H240v-964H20v-154h220v-149c0-194 155-293 318-293 85 0 141 18 168 30l-50 154c-19-6-47-17-97-17-111 0-159 58-159 166v109h258" id="ab"/><g id="l"><use transform="matrix(0.008680555555555556,0,0,0.008680555555555556,0,0)" xlink:href="#aa"/><use transform="matrix(0.008680555555555556,0,0,0.008680555555555556,10.659722222222223,0)" xlink:href="#ab"/></g><path d="M226 279v-1860h398v153H398V126h226v153H226" id="ac"/><path d="M653-1490V0H466v-1314h-10L96-1047v-204l324-239h233" id="ad"/><path d="M295 13c-75 0-135-60-135-135s60-135 135-135 135 60 135 135S370 13 295 13zm0-809c-75 0-135-60-135-135s60-135 135-135 135 60 135 135-60 135-135 135" id="ae"/><path d="M180 0v-1490h224l606 953c40 63 108 177 176 312-27-437-7-821-13-1265h190V0h-226C860-448 622-778 356-1262c27 476 11 792 15 1262H180" id="af"/><path d="M123 279V126h226v-1554H123v-153h398V279H123" id="ag"/><g id="m"><use transform="matrix(0.008680555555555556,0,0,0.008680555555555556,0,0)" xlink:href="#ac"/><use transform="matrix(0.008680555555555556,0,0,0.008680555555555556,6.484375,0)" xlink:href="#ad"/><use transform="matrix(0.008680555555555556,0,0,0.008680555555555556,13.715277777777779,0)" xlink:href="#ae"/><use transform="matrix(0.008680555555555556,0,0,0.008680555555555556,18.836805555555557,0)" xlink:href="#af"/><use transform="matrix(0.008680555555555556,0,0,0.008680555555555556,32.23090277777778,0)" xlink:href="#ag"/></g><path d="M338-670V0H158v-1490h180v566c73-149 190-208 336-208 226 0 379 139 379 422V0H872v-695c0-172-96-275-252-275-161 0-282 109-282 300" id="ah"/><g id="n"><use transform="matrix(0.008680555555555556,0,0,0.008680555555555556,0,0)" xlink:href="#ah"/><use transform="matrix(0.008680555555555556,0,0,0.008680555555555556,10.512152777777779,0)" xlink:href="#X"/><use transform="matrix(0.008680555555555556,0,0,0.008680555555555556,20.494791666666668,0)" xlink:href="#V"/></g><path d="M611 442c-248 0-391-105-460-228l146-94c47 65 117 165 314 165 178 0 307-82 307-266v-224h-17C863-141 792-18 576-18c-268 0-472-195-472-546 0-346 197-568 476-568 216 0 288 133 326 193h17v-179h175V29c0 289-215 413-487 413zm-5-620c203 0 314-146 314-390 0-237-108-403-314-403-213 0-319 180-319 403 0 230 109 390 319 390" id="ai"/><path d="M628 24c-324 0-524-230-524-574 0-343 198-582 503-582 237 0 487 146 487 559v75H286c9 234 145 362 343 362 132 0 231-58 273-172l174 48C1024-91 857 24 628 24zM287-650h624c-17-190-120-322-304-322-192 0-309 151-320 322" id="aj"/><path d="M158 0v-1118h175l1 205c55-151 181-225 313-225 147 0 245 90 285 228 53-141 190-228 352-228 194 0 352 125 352 384V0h-181v-749c0-161-105-225-225-225-151 0-243 103-243 244V0H807v-767c0-124-93-207-219-207-131 0-250 92-250 270V0H158" id="ak"/><path d="M140 405l46-156c120 36 205 19 263-150l32-93L54-1118h197c107 313 237 620 324 950 87-331 219-637 326-950h196L606 167c-68 178-176 259-334 259-64 0-113-12-132-21" id="al"/><g id="o"><use transform="matrix(0.008680555555555556,0,0,0.008680555555555556,0,0)" xlink:href="#ai"/><use transform="matrix(0.008680555555555556,0,0,0.008680555555555556,10.902777777777779,0)" xlink:href="#aj"/><use transform="matrix(0.008680555555555556,0,0,0.008680555555555556,21.267361111111114,0)" xlink:href="#aa"/><use transform="matrix(0.008680555555555556,0,0,0.008680555555555556,31.927083333333336,0)" xlink:href="#ak"/><use transform="matrix(0.008680555555555556,0,0,0.008680555555555556,47.5,0)" xlink:href="#aj"/><use transform="matrix(0.008680555555555556,0,0,0.008680555555555556,57.864583333333336,0)" xlink:href="#Z"/><use transform="matrix(0.008680555555555556,0,0,0.008680555555555556,63.68055555555556,0)" xlink:href="#Y"/><use transform="matrix(0.008680555555555556,0,0,0.008680555555555556,70.65104166666667,0)" xlink:href="#al"/></g><path d="M295 13c-75 0-135-60-135-135s60-135 135-135 135 60 135 135S370 13 295 13" id="am"/><path d="M441-652l13-317-268 171-72-126 282-146-282-146 72-128 268 171-13-317h144l-12 317 267-171 72 128-282 146 282 146-72 126-267-171 12 317H441" id="an"/><g id="p"><use transform="matrix(0.008680555555555556,0,0,0.008680555555555556,0,0)" xlink:href="#ac"/><use transform="matrix(0.008680555555555556,0,0,0.008680555555555556,6.484375,0)" xlink:href="#ad"/><use transform="matrix(0.008680555555555556,0,0,0.008680555555555556,13.715277777777779,0)" xlink:href="#am"/><use transform="matrix(0.008680555555555556,0,0,0.008680555555555556,18.836805555555557,0)" xlink:href="#am"/><use transform="matrix(0.008680555555555556,0,0,0.008680555555555556,23.958333333333336,0)" xlink:href="#an"/><use transform="matrix(0.008680555555555556,0,0,0.008680555555555556,32.864583333333336,0)" xlink:href="#ae"/><use transform="matrix(0.008680555555555556,0,0,0.008680555555555556,37.986111111111114,0)" xlink:href="#af"/><use transform="matrix(0.008680555555555556,0,0,0.008680555555555556,51.380208333333336,0)" xlink:href="#ag"/></g></defs></g></svg>