<svg xmlns="http://www.w3.org/2000/svg" xmlns:xlink="http://www.w3.org/1999/xlink" xmlns:lucid="lucid" width="490.33" height="265"><g transform="translate(-407.5000000443877 -303.4999999801741)" lucid:page-tab-id="or~hfSN0KNQO"><path d="M0 0h1000v1000H0z" fill="#fff"/><path d="M573.33 359.33c0 30.56-37 55.34-82.66 55.34S408 389.9 408 359.33c0-30.56 37-55.33 82.67-55.33 45.65 0 82.66 24.77 82.66 55.33z" stroke="#3a414a" fill-opacity="0"/><use xlink:href="#a" transform="matrix(1,0,0,1,413.0000000443877,308.9999999801741) translate(38.373263888888886 59.40277777777778)"/><path d="M573.33 512.67c0 30.56-37 55.33-82.66 55.33S408 543.23 408 512.67s37-55.34 82.67-55.34c45.65 0 82.66 24.78 82.66 55.34z" stroke="#3a414a" fill-opacity="0"/><use xlink:href="#b" transform="matrix(1,0,0,1,413.0000000443877,462.3333333135076) translate(17.360468750000003 43.62152777777778)"/><use xlink:href="#c" transform="matrix(1,0,0,1,413.0000000443877,462.3333333135076) translate(38.04731770833333 70.50954861111111)"/><path d="M490.67 456.33v-26.67" stroke="#3a414a" fill="none"/><path d="M491.14 456.85l-.47-.02-.48.02v-.53h.94z" stroke="#3a414a" stroke-width=".05" fill="#3a414a"/><path d="M490.67 416.17l7.5 13h-15z" stroke="#3a414a" fill="#fff"/><path d="M610.2 359.8h-35.87v-.94h35.87zm111.86 0h-26.92v-.94h26.92z" stroke="#e81313" stroke-width=".05" fill="#e81313"/><path d="M574.35 359.8h-.53v-.94h.53z" fill="#e81313"/><path stroke="#e81313" stroke-width=".05" fill="#e81313"/><path d="M731.45 359.33l-18.03 10.42-.48-.83 15.8-9.1H722v-.96h6.73l-15.8-9.12.5-.82z" stroke="#e81313" stroke-width=".05" fill="#e81313"/><use xlink:href="#d" transform="matrix(1,0,0,1,610.1970484782304,322.76562504211694) translate(2.2142013888888883 17.22222222222222)"/><use xlink:href="#e" transform="matrix(1,0,0,1,610.1970484782304,322.76562504211694) translate(0.005000000000002558 43.034722222222214)"/><use xlink:href="#f" transform="matrix(1,0,0,1,610.1970484782304,322.76562504211694) translate(34.31055555555556 68.84722222222221)"/><path d="M897.33 359.33c0 30.56-37 55.34-82.66 55.34S732 389.9 732 359.33c0-30.56 37-55.33 82.67-55.33 45.65 0 82.66 24.77 82.66 55.33z" stroke="#3a414a" fill="#f2f2ff"/><g><use xlink:href="#g" transform="matrix(1,0,0,1,736.9999999999999,308.9999999801741) translate(33.39279513888889 59.40277777777778)"/></g><defs><path fill="#3a414a" d="M180 0v-1490h901v168H370v510h643v168H370V0H180" id="h"/><path fill="#3a414a" d="M628 24c-324 0-524-230-524-574 0-343 198-582 503-582 237 0 487 146 487 559v75H286c9 234 145 362 343 362 132 0 231-58 273-172l174 48C1024-91 857 24 628 24zM287-650h624c-17-190-120-322-304-322-192 0-309 151-320 322" id="i"/><path fill="#3a414a" d="M471 26C259 26 90-98 90-318c0-256 228-303 435-329 202-27 287-16 287-108 0-139-79-219-234-219-161 0-248 86-283 164l-173-57c86-203 278-265 451-265 150 0 419 46 419 395V0H815v-152h-12C765-73 660 26 471 26zm31-159c199 0 310-134 310-271v-155c-30 35-226 55-295 64-131 17-246 59-246 186 0 116 97 176 231 176" id="j"/><path fill="#3a414a" d="M598-1118v154H368v674c0 100 37 144 132 144 23 0 62-6 92-12L629-6c-37 13-88 20-134 20-193 0-307-107-307-290v-688H20v-154h168v-266h180v266h230" id="k"/><path fill="#3a414a" d="M537 14c-226 0-379-139-379-422v-710h180v695c0 172 97 275 253 275 160 0 281-109 281-300v-670h181V0H879v-209C806-46 684 14 537 14" id="l"/><path fill="#3a414a" d="M158 0v-1118h174v172h12c41-113 157-188 290-188 26 0 70 2 91 3v181c-11-2-60-10-108-10-161 0-279 109-279 260V0H158" id="m"/><g id="a"><use transform="matrix(0.010850694444444444,0,0,0.010850694444444444,0,0)" xlink:href="#h"/><use transform="matrix(0.010850694444444444,0,0,0.010850694444444444,12.239583333333332,0)" xlink:href="#i"/><use transform="matrix(0.010850694444444444,0,0,0.010850694444444444,25.41232638888889,0)" xlink:href="#j"/><use transform="matrix(0.010850694444444444,0,0,0.010850694444444444,37.890625,0)" xlink:href="#k"/><use transform="matrix(0.010850694444444444,0,0,0.010850694444444444,45.16059027777778,0)" xlink:href="#l"/><use transform="matrix(0.010850694444444444,0,0,0.010850694444444444,58.30078125,0)" xlink:href="#m"/><use transform="matrix(0.010850694444444444,0,0,0.010850694444444444,66.29774305555556,0)" xlink:href="#i"/></g><path fill="#3a414a" d="M575 26C254 26 62-139 87-390h195c-13 168 129 246 305 246 202 0 370-106 400-265 38-202-254-238-427-293-212-68-349-179-316-387 40-252 276-421 566-421 289 0 487 168 458 396h-185c7-144-113-228-291-228-194 0-337 102-361 240-27 156 137 212 244 243l142 41c149 43 400 132 354 412-40 244-251 432-596 432" id="n"/><path fill="#3a414a" d="M-4 418l255-1536h174l-30 179h9c47-68 143-193 355-193 246 0 401 170 401 447 0 348-211 709-568 709-219 0-274-140-300-202h-17l-99 596H-4zm572-555c267 0 411-296 411-543 0-170-78-291-250-291-269 0-405 284-405 542 0 177 81 292 244 292" id="o"/><path fill="#3a414a" d="M535 24C259 24 94-144 94-427c0-392 272-715 610-715 216 0 356 119 356 305 0 244-237 344-790 350-18 199 49 349 276 352 142 0 260-66 317-173l167 47C947-85 756 24 535 24zM294-623c447-4 586-57 586-218 0-85-78-141-194-141-220 0-342 177-392 359" id="p"/><path fill="#3a414a" d="M528 24C258 24 94-156 94-433c0-354 228-699 603-699 222 0 381 120 410 314l-176 39c-14-114-95-192-238-192-272 0-419 288-419 536 0 167 76 298 258 298 155 0 277-90 329-211l166 58C935-93 745 24 528 24" id="q"/><path fill="#3a414a" d="M66 0l185-1118h180L246 0H66zm307-1301c-71 0-117-55-106-119s74-119 145-119c65 0 117 50 106 118s-78 120-145 120" id="r"/><path fill="#3a414a" d="M481 24C202 24 45-202 104-557s293-575 571-575c216 0 263 132 291 193h15l29-179h181L1006 0H831l28-173h-21C788-107 693 24 481 24zm56-161c204 0 342-174 383-422s-41-412-245-412c-215 0-350 183-388 412-39 235 39 422 250 422" id="s"/><path fill="#3a414a" d="M492-1490L245 0H65l247-1490h180" id="t"/><path fill="#3a414a" d="M451 24C217 22 71-78 61-277l174-29c11 123 90 172 219 172 161 0 280-83 297-181 11-71-30-117-135-143l-179-44c-195-48-280-153-253-316 31-186 223-314 455-314 233 4 337 107 366 275l-165 30c-18-80-65-152-204-152-138 0-256 75-272 174-13 77 32 118 158 149l162 40c195 48 278 154 252 313C904-113 708 24 451 24" id="u"/><path fill="#3a414a" d="M492 24C248 24 94-147 94-425c0-352 212-707 569-707 222 0 274 136 303 198h12l92-556h181L1004 0H829l30-173h-19C792-103 700 24 492 24zm32-161c268 0 407-295 407-549 0-175-80-285-247-285-266 0-408 283-408 536 0 174 79 298 248 298" id="v"/><g id="b"><use transform="matrix(0.010850694444444444,0,0,0.010850694444444444,0,0)" xlink:href="#n"/><use transform="matrix(0.010850694444444444,0,0,0.010850694444444444,14.23611111111111,0)" xlink:href="#o"/><use transform="matrix(0.010850694444444444,0,0,0.010850694444444444,27.85373263888889,0)" xlink:href="#p"/><use transform="matrix(0.010850694444444444,0,0,0.010850694444444444,40.646701388888886,0)" xlink:href="#q"/><use transform="matrix(0.010850694444444444,0,0,0.010850694444444444,53.35286458333333,0)" xlink:href="#r"/><use transform="matrix(0.010850694444444444,0,0,0.010850694444444444,58.74565972222221,0)" xlink:href="#s"/><use transform="matrix(0.010850694444444444,0,0,0.010850694444444444,72.38498263888889,0)" xlink:href="#t"/><use transform="matrix(0.010850694444444444,0,0,0.010850694444444444,77.76692708333333,0)" xlink:href="#r"/><use transform="matrix(0.010850694444444444,0,0,0.010850694444444444,83.15972222222221,0)" xlink:href="#u"/><use transform="matrix(0.010850694444444444,0,0,0.010850694444444444,94.87847222222221,0)" xlink:href="#p"/><use transform="matrix(0.010850694444444444,0,0,0.010850694444444444,107.67144097222221,0)" xlink:href="#v"/></g><path fill="#3a414a" d="M87 0l247-1490h901l-28 167H496l-85 512h643l-27 167H384L277 0H87" id="w"/><path fill="#3a414a" d="M691-1118l-25 154H437L325-290c-17 103 16 144 108 144 23 0 63-6 94-12L538-6c-36 12-87 20-136 20-196 0-290-109-260-290l114-688H88l25-154h169l44-266h180l-44 266h229" id="x"/><path fill="#3a414a" d="M443 14C219 14 87-123 134-408l117-710h180L317-423c-28 171 49 275 206 275s300-105 332-300l110-670h181L961 0H787l35-209C722-47 590 14 443 14" id="y"/><path fill="#3a414a" d="M66 0l185-1118h174l-28 172h12c78-136 219-209 411-185l-30 181c-211-47-398 67-428 250L246 0H66" id="z"/><g id="c"><use transform="matrix(0.010850694444444444,0,0,0.010850694444444444,0,0)" xlink:href="#w"/><use transform="matrix(0.010850694444444444,0,0,0.010850694444444444,12.239583333333332,0)" xlink:href="#p"/><use transform="matrix(0.010850694444444444,0,0,0.010850694444444444,25.032552083333332,0)" xlink:href="#s"/><use transform="matrix(0.010850694444444444,0,0,0.010850694444444444,38.671875,0)" xlink:href="#x"/><use transform="matrix(0.010850694444444444,0,0,0.010850694444444444,45.963541666666664,0)" xlink:href="#y"/><use transform="matrix(0.010850694444444444,0,0,0.010850694444444444,59.11458333333333,0)" xlink:href="#z"/><use transform="matrix(0.010850694444444444,0,0,0.010850694444444444,67.12239583333333,0)" xlink:href="#p"/></g><path fill="#e81313" d="M528 24C258 24 94-156 94-433c0-354 228-699 603-699 222 0 381 120 410 314l-176 39c-14-114-95-192-238-192-272 0-419 288-419 536 0 167 76 298 258 298 155 0 277-90 329-211l166 58C935-93 745 24 528 24" id="A"/><path fill="#e81313" d="M492-1490L245 0H65l247-1490h180" id="B"/><path fill="#e81313" d="M481 24C202 24 45-202 104-557s293-575 571-575c216 0 263 132 291 193h15l29-179h181L1006 0H831l28-173h-21C788-107 693 24 481 24zm56-161c204 0 342-174 383-422s-41-412-245-412c-215 0-350 183-388 412-39 235 39 422 250 422" id="C"/><path fill="#e81313" d="M451 24C217 22 71-78 61-277l174-29c11 123 90 172 219 172 161 0 280-83 297-181 11-71-30-117-135-143l-179-44c-195-48-280-153-253-316 31-186 223-314 455-314 233 4 337 107 366 275l-165 30c-18-80-65-152-204-152-138 0-256 75-272 174-13 77 32 118 158 149l162 40c195 48 278 154 252 313C904-113 708 24 451 24" id="D"/><path fill="#e81313" d="M66 0l185-1118h180L246 0H66zm307-1301c-71 0-117-55-106-119s74-119 145-119c65 0 117 50 106 118s-78 120-145 120" id="E"/><path fill="#e81313" d="M780-1118l-24 146H497L317 116C281 334 148 448-56 448c-43 0-82-5-117-17l45-161c143 34 239 0 264-153L316-972H89l24-146h227l13-77c43-287 254-417 541-345l-50 154c-23-5-81-8-121-8-107 0-167 63-189 196l-13 80h259" id="F"/><path fill="#e81313" d="M535 24C259 24 94-144 94-427c0-392 272-715 610-715 216 0 356 119 356 305 0 244-237 344-790 350-18 199 49 349 276 352 142 0 260-66 317-173l167 47C947-85 756 24 535 24zM294-623c447-4 586-57 586-218 0-85-78-141-194-141-220 0-342 177-392 359" id="G"/><path fill="#e81313" d="M492 24C248 24 94-147 94-425c0-352 212-707 569-707 222 0 274 136 303 198h12l92-556h181L1004 0H829l30-173h-19C792-103 700 24 492 24zm32-161c268 0 407-295 407-549 0-175-80-285-247-285-266 0-408 283-408 536 0 174 79 298 248 298" id="H"/><g id="d"><use transform="matrix(0.008680555555555556,0,0,0.008680555555555556,0,0)" xlink:href="#A"/><use transform="matrix(0.008680555555555556,0,0,0.008680555555555556,10.164930555555555,0)" xlink:href="#B"/><use transform="matrix(0.008680555555555556,0,0,0.008680555555555556,14.470486111111109,0)" xlink:href="#C"/><use transform="matrix(0.008680555555555556,0,0,0.008680555555555556,25.381944444444443,0)" xlink:href="#D"/><use transform="matrix(0.008680555555555556,0,0,0.008680555555555556,34.75694444444444,0)" xlink:href="#D"/><use transform="matrix(0.008680555555555556,0,0,0.008680555555555556,44.13194444444444,0)" xlink:href="#E"/><use transform="matrix(0.008680555555555556,0,0,0.008680555555555556,48.44618055555556,0)" xlink:href="#F"/><use transform="matrix(0.008680555555555556,0,0,0.008680555555555556,55.078125,0)" xlink:href="#E"/><use transform="matrix(0.008680555555555556,0,0,0.008680555555555556,59.392361111111114,0)" xlink:href="#G"/><use transform="matrix(0.008680555555555556,0,0,0.008680555555555556,69.62673611111111,0)" xlink:href="#H"/></g><path fill="#e81313" d="M528 24C258 24 94-156 94-433c0-355 229-699 603-699 270 0 436 178 436 458 0 359-234 698-605 698zm4-161c275 0 420-287 420-533 0-170-77-301-260-301-271 0-418 288-418 536 0 168 77 298 258 298" id="I"/><path fill="#e81313" d="M66 0l185-1118h174l-28 172h12c78-136 219-209 411-185l-30 181c-211-47-398 67-428 250L246 0H66" id="J"/><path fill="#e81313" d="M356-664L245 0H65l186-1118h173l-32 197c96-152 219-211 366-211 232 0 366 145 319 428L960 0H779l117-701c29-174-48-269-198-269-165 0-310 115-342 306" id="K"/><path fill="#e81313" d="M456 442C197 442 73 327 25 209l155-84c33 60 86 160 280 160 184 0 332-89 363-272l37-218-16 4C793-134 707-18 498-18 260-18 96-170 96-443c0-341 216-689 568-689 222 0 274 139 301 198l21-5 30-179h175L999 35c-48 288-275 407-543 407zm75-620c274 0 401-267 401-512 0-170-80-281-247-281-260 0-408 269-408 518 0 167 83 275 254 275" id="L"/><g id="e"><use transform="matrix(0.008680555555555556,0,0,0.008680555555555556,0,0)" xlink:href="#C"/><use transform="matrix(0.008680555555555556,0,0,0.008680555555555556,10.911458333333334,0)" xlink:href="#A"/><use transform="matrix(0.008680555555555556,0,0,0.008680555555555556,21.07638888888889,0)" xlink:href="#A"/><use transform="matrix(0.008680555555555556,0,0,0.008680555555555556,31.241319444444443,0)" xlink:href="#I"/><use transform="matrix(0.008680555555555556,0,0,0.008680555555555556,41.90972222222222,0)" xlink:href="#J"/><use transform="matrix(0.008680555555555556,0,0,0.008680555555555556,48.315972222222236,0)" xlink:href="#H"/><use transform="matrix(0.008680555555555556,0,0,0.008680555555555556,59.21006944444445,0)" xlink:href="#E"/><use transform="matrix(0.008680555555555556,0,0,0.008680555555555556,63.524305555555564,0)" xlink:href="#K"/><use transform="matrix(0.008680555555555556,0,0,0.008680555555555556,74.03645833333334,0)" xlink:href="#L"/></g><path fill="#e81313" d="M691-1118l-25 154H437L325-290c-17 103 16 144 108 144 23 0 63-6 94-12L538-6c-36 12-87 20-136 20-196 0-290-109-260-290l114-688H88l25-154h169l44-266h180l-44 266h229" id="M"/><g id="f"><use transform="matrix(0.008680555555555556,0,0,0.008680555555555556,0,0)" xlink:href="#M"/><use transform="matrix(0.008680555555555556,0,0,0.008680555555555556,5.659722222222223,0)" xlink:href="#I"/></g><path fill="#3a414a" d="M783 20c-382 0-661-292-661-764 0-473 279-766 661-766 302 0 548 182 601 489h-190c-42-204-217-313-411-313-268 0-476 208-476 590 0 381 209 588 476 588 195 0 369-110 411-313h190c-52 303-296 489-601 489" id="N"/><path fill="#3a414a" d="M613 24c-304 0-509-231-509-576 0-350 205-580 509-580 305 0 511 230 511 580 0 345-206 576-511 576zm0-161c226 0 329-195 329-415 0-222-103-419-329-419-223 0-326 196-326 419 0 220 103 415 326 415" id="O"/><path fill="#3a414a" d="M338-670V0H158v-1118h173l1 207c72-158 192-221 342-221 226 0 378 139 378 422V0H872v-695c0-172-96-275-252-275-161 0-282 109-282 300" id="P"/><path fill="#3a414a" d="M613 24c-304 0-509-231-509-576 0-350 205-580 509-580 216 0 392 114 453 309l-173 49c-33-115-133-197-280-197-223 0-326 196-326 419 0 220 103 415 326 415 150 0 252-85 285-206l172 49C1010-95 832 24 613 24" id="Q"/><path fill="#3a414a" d="M158 418v-1536h174v179h20c37-59 106-193 324-193 279 0 474 222 474 576 0 356-194 580-473 580-213 0-288-135-325-197h-14v591H158zm492-555c209 0 317-186 317-421 0-232-105-413-317-413-206 0-314 166-314 413 0 249 111 421 314 421" id="R"/><g id="g"><use transform="matrix(0.010850694444444444,0,0,0.010850694444444444,0,0)" xlink:href="#N"/><use transform="matrix(0.010850694444444444,0,0,0.010850694444444444,16.23263888888889,0)" xlink:href="#O"/><use transform="matrix(0.010850694444444444,0,0,0.010850694444444444,29.557291666666664,0)" xlink:href="#P"/><use transform="matrix(0.010850694444444444,0,0,0.010850694444444444,42.68663194444444,0)" xlink:href="#Q"/><use transform="matrix(0.010850694444444444,0,0,0.010850694444444444,55.38194444444444,0)" xlink:href="#i"/><use transform="matrix(0.010850694444444444,0,0,0.010850694444444444,68.33767361111111,0)" xlink:href="#R"/><use transform="matrix(0.010850694444444444,0,0,0.010850694444444444,81.94444444444444,0)" xlink:href="#k"/></g></defs></g></svg>